# xmcd
#
# Track frame offsets:
#	150
#	18372
#	34405
#	45919
#	63018
#	77435
#	95624
#	111601
#	131059
#	149569
#	165669
#	185296
#	207511
#	224939
#	240684
#	257799
#	273605
#	290571
#	307378
#	319470
#
# Disc length: 4440 seconds
#
# Revision: 0
# Processed by: cddbd v1.5.2PL0 Copyright (c) Steve Scherf et al.
# Submitted via: EasyCDDAExtractor 10.0.5.1
#
DISCID=44115614
DTITLE=Travis Tritt - The Very Best Of Travis Tritt
DYEAR=2007
DGENRE=Country
TTITLE0=It's A Great Day To Be Alive
TTITLE1=Take It Easy
TTITLE2=Here's A Quarter (Call Someone Who Cares)
TTITLE3=Anymore
TTITLE4=Country Club
TTITLE5=Help Me Hold On
TTITLE6=Where Corn Don't Grow
TTITLE7=Best Of Intentions
TTITLE8=I'm Gonna Be Somebody
TTITLE9=Can I Trust You With My Heart
TTITLE10=Foolish Pride
TTITLE11=Lord Have Mercy On The Working Man
TTITLE12=Nothing Short Of Dying
TTITLE13=More Than You'll Ever Know
TTITLE14=Sometimes She Forgets
TTITLE15=This One's Gonna Hurt You (For A Long, Long Time)
TTITLE16=Tell Me I Was Dreaming
TTITLE17=Drift Off To Dream
TTITLE18=The Wiskey Ain't Workin'
TTITLE19=T-R-O-U-B-L-E
EXTD=
EXTT0=
EXTT1=
EXTT2=
EXTT3=
EXTT4=
EXTT5=
EXTT6=
EXTT7=
EXTT8=
EXTT9=
EXTT10=
EXTT11=
EXTT12=
EXTT13=
EXTT14=
EXTT15=
EXTT16=
EXTT17=
EXTT18=
EXTT19=
PLAYORDER=
